<svg xmlns="http://www.w3.org/2000/svg" xmlns:xlink="http://www.w3.org/1999/xlink" version="1.1" width="256" height="256" viewBox="0 0 256 256" xml:space="preserve">

<defs>
</defs>
<g style="stroke: none; stroke-width: 0; stroke-dasharray: none; stroke-linecap: butt; stroke-linejoin: miter; stroke-miterlimit: 10; fill: none; fill-rule: nonzero; opacity: 1;" transform="translate(1.4065934065934016 1.4065934065934016) scale(2.81 2.81)" >
	<circle cx="44.995" cy="49.645" r="13.295" style="stroke: none; stroke-width: 1; stroke-dasharray: none; stroke-linecap: butt; stroke-linejoin: miter; stroke-miterlimit: 10; fill: rgb(248,204,29); fill-rule: nonzero; opacity: 1;" transform="  matrix(1 0 0 1 0 0) "/>
	<path d="M 62.591 24.526 c -0.371 -0.259 -0.87 -0.238 -1.217 0.054 L 37.863 44.335 c -0.009 0.007 -0.011 0.019 -0.02 0.026 c -0.057 0.051 -0.092 0.118 -0.136 0.181 c -0.044 0.063 -0.095 0.118 -0.123 0.188 c -0.004 0.01 -0.014 0.017 -0.018 0.027 L 27.043 73.608 c -0.155 0.426 -0.005 0.902 0.366 1.162 c 0.173 0.121 0.374 0.181 0.574 0.181 c 0.229 0 0.458 -0.079 0.644 -0.234 l 23.511 -19.756 c 0.009 -0.007 0.011 -0.019 0.02 -0.026 c 0.057 -0.051 0.091 -0.118 0.135 -0.181 c 0.044 -0.063 0.095 -0.118 0.123 -0.188 c 0.004 -0.01 0.014 -0.017 0.018 -0.028 l 10.523 -28.85 C 63.112 25.262 62.962 24.786 62.591 24.526 z M 30.205 70.778 l 8.794 -24.111 l 10.854 7.601 L 30.205 70.778 z M 51.001 52.629 l -5.427 -3.8 l -5.427 -3.8 l 19.65 -16.51 L 51.001 52.629 z" style="stroke: none; stroke-width: 1; stroke-dasharray: none; stroke-linecap: butt; stroke-linejoin: miter; stroke-miterlimit: 10; fill: rgb(0,0,0); fill-rule: nonzero; opacity: 1;" transform=" matrix(1 0 0 1 0 0) " stroke-linecap="round" />
	<path d="M 16.547 55.63 c -0.552 0 -1 -0.447 -1 -1 v -5.024 c 0 -0.553 0.448 -1 1 -1 s 1 0.447 1 1 v 5.024 C 17.547 55.183 17.1 55.63 16.547 55.63 z" style="stroke: none; stroke-width: 1; stroke-dasharray: none; stroke-linecap: butt; stroke-linejoin: miter; stroke-miterlimit: 10; fill: rgb(248,204,29); fill-rule: nonzero; opacity: 1;" transform=" matrix(1 0 0 1 0 0) " stroke-linecap="round" />
	<path d="M 19.06 53.118 h -5.024 c -0.552 0 -1 -0.447 -1 -1 s 0.448 -1 1 -1 h 5.024 c 0.552 0 1 0.447 1 1 S 19.612 53.118 19.06 53.118 z" style="stroke: none; stroke-width: 1; stroke-dasharray: none; stroke-linecap: butt; stroke-linejoin: miter; stroke-miterlimit: 10; fill: rgb(248,204,29); fill-rule: nonzero; opacity: 1;" transform=" matrix(1 0 0 1 0 0) " stroke-linecap="round" />
	<path d="M 26.485 45.667 c -0.898 0 -1.796 -0.342 -2.479 -1.025 c -1.368 -1.367 -1.368 -3.592 0 -4.959 c 1.324 -1.325 3.634 -1.326 4.96 0 c 0.662 0.662 1.027 1.543 1.027 2.479 c 0 0.937 -0.365 1.818 -1.027 2.48 C 28.281 45.326 27.383 45.667 26.485 45.667 z M 26.485 40.655 c -0.403 0 -0.781 0.157 -1.065 0.441 c -0.285 0.285 -0.442 0.663 -0.442 1.065 c 0 0.403 0.157 0.781 0.441 1.066 c 0.569 0.569 1.562 0.569 2.131 0 c 0.285 -0.285 0.441 -0.663 0.441 -1.066 c 0 -0.402 -0.157 -0.781 -0.441 -1.065 S 26.888 40.655 26.485 40.655 z" style="stroke: none; stroke-width: 1; stroke-dasharray: none; stroke-linecap: butt; stroke-linejoin: miter; stroke-miterlimit: 10; fill: rgb(248,204,29); fill-rule: nonzero; opacity: 1;" transform=" matrix(1 0 0 1 0 0) " stroke-linecap="round" />
	<path d="M 45 84.57 c -0.387 0 -0.739 -0.223 -0.904 -0.573 l -3.194 -6.764 c -0.146 -0.31 -0.124 -0.673 0.06 -0.962 c 0.184 -0.289 0.502 -0.465 0.845 -0.465 h 6.389 c 0.343 0 0.661 0.176 0.845 0.465 s 0.206 0.652 0.06 0.962 l -3.194 6.764 C 45.739 84.348 45.387 84.57 45 84.57 z M 43.384 77.807 L 45 81.229 l 1.616 -3.422 H 43.384 z" style="stroke: none; stroke-width: 1; stroke-dasharray: none; stroke-linecap: butt; stroke-linejoin: miter; stroke-miterlimit: 10; fill: rgb(248,204,29); fill-rule: nonzero; opacity: 1;" transform=" matrix(1 0 0 1 0 0) " stroke-linecap="round" />
	<path d="M 73 53.118 c -0.187 0 -0.373 -0.052 -0.535 -0.155 C 72.176 52.779 72 52.461 72 52.118 v -6.389 c 0 -0.343 0.176 -0.661 0.465 -0.845 c 0.289 -0.183 0.652 -0.206 0.962 -0.06 l 6.765 3.195 c 0.351 0.165 0.573 0.518 0.573 0.904 s -0.224 0.739 -0.573 0.904 l -6.765 3.194 C 73.291 53.087 73.146 53.118 73 53.118 z M 74 47.308 v 3.232 l 3.423 -1.616 L 74 47.308 z" style="stroke: none; stroke-width: 1; stroke-dasharray: none; stroke-linecap: butt; stroke-linejoin: miter; stroke-miterlimit: 10; fill: rgb(248,204,29); fill-rule: nonzero; opacity: 1;" transform=" matrix(1 0 0 1 0 0) " stroke-linecap="round" />
	<path d="M 16.548 43.844 c -0.077 0 -0.155 -0.009 -0.233 -0.027 c -0.537 -0.128 -0.869 -0.667 -0.741 -1.205 C 18.831 28.945 30.931 19.4 45 19.4 c 4.407 0 8.656 0.927 12.63 2.755 c 0.502 0.231 0.722 0.825 0.49 1.327 c -0.23 0.5 -0.823 0.72 -1.326 0.491 C 53.084 22.265 49.116 21.4 45 21.4 c -13.14 0 -24.439 8.914 -27.48 21.676 C 17.411 43.535 17 43.844 16.548 43.844 z" style="stroke: none; stroke-width: 1; stroke-dasharray: none; stroke-linecap: butt; stroke-linejoin: miter; stroke-miterlimit: 10; fill: rgb(248,204,29); fill-rule: nonzero; opacity: 1;" transform=" matrix(1 0 0 1 0 0) " stroke-linecap="round" />
	<path d="M 30.437 36.638 c -0.25 0 -0.5 -0.093 -0.693 -0.279 c -0.398 -0.383 -0.41 -1.016 -0.027 -1.414 C 33.752 30.75 39.18 28.44 45 28.44 c 1.124 0 2.251 0.089 3.352 0.264 c 0.545 0.087 0.917 0.6 0.83 1.145 c -0.086 0.545 -0.591 0.916 -1.145 0.831 C 47.041 30.521 46.019 30.44 45 30.44 c -5.271 0 -10.187 2.092 -13.842 5.892 C 30.961 36.536 30.699 36.638 30.437 36.638 z" style="stroke: none; stroke-width: 1; stroke-dasharray: none; stroke-linecap: butt; stroke-linejoin: miter; stroke-miterlimit: 10; fill: rgb(248,204,29); fill-rule: nonzero; opacity: 1;" transform=" matrix(1 0 0 1 0 0) " stroke-linecap="round" />
	<path d="M 53.773 10.268 V 3.961 C 53.773 1.777 51.996 0 49.813 0 h -9.625 c -2.185 0 -3.961 1.777 -3.961 3.961 v 6.306 C 18.183 14.286 4.648 30.411 4.648 49.648 C 4.648 71.898 22.75 90 45 90 s 40.352 -18.102 40.352 -40.352 C 85.352 30.411 71.817 14.286 53.773 10.268 z M 38.227 3.961 C 38.227 2.88 39.106 2 40.188 2 h 9.625 c 1.081 0 1.961 0.88 1.961 1.961 v 5.914 C 49.57 9.501 47.309 9.296 45 9.296 s -4.57 0.206 -6.773 0.58 V 3.961 z M 45 88 C 23.853 88 6.648 70.796 6.648 49.648 S 23.853 11.296 45 11.296 s 38.352 17.205 38.352 38.353 S 66.147 88 45 88 z" style="stroke: none; stroke-width: 1; stroke-dasharray: none; stroke-linecap: butt; stroke-linejoin: miter; stroke-miterlimit: 10; fill: rgb(0,0,0); fill-rule: nonzero; opacity: 1;" transform=" matrix(1 0 0 1 0 0) " stroke-linecap="round" />
</g>
</svg>