<svg xmlns="http://www.w3.org/2000/svg" xmlns:xlink="http://www.w3.org/1999/xlink" version="1.1" width="256" height="256" viewBox="0 0 256 256" xml:space="preserve">

<defs>
</defs>
<g style="stroke: none; stroke-width: 0; stroke-dasharray: none; stroke-linecap: butt; stroke-linejoin: miter; stroke-miterlimit: 10; fill: none; fill-rule: nonzero; opacity: 1;" transform="translate(1.4065934065934016 1.4065934065934016) scale(2.81 2.81)" >
	<path d="M 29.094 44.317 c 0 4.169 4.392 7.561 8.561 7.561 c 2.232 0 4.336 -0.98 5.774 -2.689 c 1.448 -1.723 2.057 -3.985 1.67 -6.207 c -0.672 -3.865 -1.582 -7.006 -2.462 -10.044 c -2.069 -7.14 -3.854 -13.306 -0.646 -23.53 L 44.944 0 l 2.703 9.482 c 1.25 4.386 5.884 10.005 10.789 15.954 c 8.195 9.938 17.484 21.203 17.484 33.632 c 0 8.502 -3.555 16.718 -9.751 22.543 C 60.37 87.06 52.921 90 45.015 90 c -0.662 0 -1.326 -0.021 -1.994 -0.062 c -15.958 -0.99 -28.94 -14.32 -28.94 -29.713 c 0 -9.526 3.084 -14.421 5.806 -18.74 c 1.828 -2.901 9.635 -16.008 10.437 -20.163 C 29.828 30.596 28.549 39.037 29.094 44.317 z" style="stroke: none; stroke-width: 1; stroke-dasharray: none; stroke-linecap: butt; stroke-linejoin: miter; stroke-miterlimit: 10; fill: rgb(229,81,81); fill-rule: nonzero; opacity: 1;" transform=" matrix(1 0 0 1 0 0) " stroke-linecap="round" />
</g>
</svg>