<svg xmlns="http://www.w3.org/2000/svg" xmlns:xlink="http://www.w3.org/1999/xlink" version="1.1" width="256" height="256" viewBox="0 0 256 256" xml:space="preserve">

<defs>
</defs>
<g style="stroke: none; stroke-width: 0; stroke-dasharray: none; stroke-linecap: butt; stroke-linejoin: miter; stroke-miterlimit: 10; fill: none; fill-rule: nonzero; opacity: 1;" transform="translate(1.4065934065934016 1.4065934065934016) scale(2.81 2.81)" >
	<path d="M 18.752 42.449 c -0.595 0 -1.184 -0.264 -1.579 -0.77 l -3.257 -4.176 c -1.749 -2.243 -1.347 -5.491 0.896 -7.24 l 37.16 -28.975 c 1.087 -0.847 2.436 -1.218 3.806 -1.052 c 1.367 0.169 2.587 0.861 3.434 1.948 l 3.257 4.176 c 0.326 0.418 0.473 0.949 0.408 1.476 c -0.065 0.526 -0.337 1.005 -0.756 1.332 l -42.14 32.859 C 19.616 42.311 19.182 42.449 18.752 42.449 z" style="stroke: none; stroke-width: 1; stroke-dasharray: none; stroke-linecap: butt; stroke-linejoin: miter; stroke-miterlimit: 10; fill: rgb(0,0,0); fill-rule: nonzero; opacity: 1;" transform=" matrix(1 0 0 1 0 0) " stroke-linecap="round" />
	<path d="M 25.987 26.086 c -0.082 0 -0.164 -0.005 -0.246 -0.015 c -0.526 -0.065 -1.005 -0.337 -1.332 -0.755 l -2.561 -3.285 c -1.749 -2.243 -1.348 -5.491 0.896 -7.24 l 12.29 -9.583 c 1.087 -0.847 2.44 -1.218 3.806 -1.052 c 1.367 0.169 2.587 0.861 3.435 1.947 l 2.561 3.285 c 0.679 0.871 0.524 2.128 -0.347 2.807 L 27.217 25.664 C 26.863 25.939 26.43 26.086 25.987 26.086 z M 38.204 8.118 c -0.257 0 -0.504 0.085 -0.71 0.245 l -12.29 9.583 c -0.244 0.19 -0.399 0.464 -0.438 0.771 s 0.046 0.61 0.236 0.854 l 1.332 1.708 l 14.117 -11.008 L 39.12 8.564 c -0.19 -0.244 -0.464 -0.399 -0.771 -0.438 C 38.3 8.121 38.252 8.118 38.204 8.118 z" style="stroke: none; stroke-width: 1; stroke-dasharray: none; stroke-linecap: butt; stroke-linejoin: miter; stroke-miterlimit: 10; fill: rgb(0,0,0); fill-rule: nonzero; opacity: 1;" transform=" matrix(1 0 0 1 0 0) " stroke-linecap="round" />
	<path d="M 75.174 28.075 H 32.056 c -0.446 0 -0.878 0.149 -1.23 0.423 l -3.947 3.078 c -0.486 0.379 -0.77 0.961 -0.77 1.577 v 51.689 c 0 2.844 2.314 5.158 5.159 5.158 h 40.747 c 2.845 0 5.159 -2.314 5.159 -5.158 V 30.075 C 77.174 28.97 76.278 28.075 75.174 28.075 z M 41.771 77.786 c 0 1.104 -0.896 2 -2 2 s -2 -0.896 -2 -2 v -37.5 c 0 -1.104 0.896 -2 2 -2 s 2 0.896 2 2 V 77.786 z M 53.642 77.786 c 0 1.104 -0.896 2 -2 2 s -2 -0.896 -2 -2 v -37.5 c 0 -1.104 0.896 -2 2 -2 s 2 0.896 2 2 V 77.786 z M 65.512 77.786 c 0 1.104 -0.896 2 -2 2 s -2 -0.896 -2 -2 v -37.5 c 0 -1.104 0.896 -2 2 -2 s 2 0.896 2 2 V 77.786 z" style="stroke: none; stroke-width: 1; stroke-dasharray: none; stroke-linecap: butt; stroke-linejoin: miter; stroke-miterlimit: 10; fill: rgb(0,0,0); fill-rule: nonzero; opacity: 1;" transform=" matrix(1 0 0 1 0 0) " stroke-linecap="round" />
	<path d="M 74.765 24.582 H 55.551 c -0.854 0 -1.613 -0.542 -1.892 -1.35 c -0.277 -0.808 -0.012 -1.703 0.662 -2.228 l 11.454 -8.932 c 2.067 -1.613 4.814 -1.899 7.17 -0.749 s 3.819 3.493 3.819 6.115 v 5.143 C 76.765 23.686 75.869 24.582 74.765 24.582 z M 67.005 13.65 h 0.01 H 67.005 z" style="stroke: none; stroke-width: 1; stroke-dasharray: none; stroke-linecap: butt; stroke-linejoin: miter; stroke-miterlimit: 10; fill: rgb(0,0,0); fill-rule: nonzero; opacity: 1;" transform=" matrix(1 0 0 1 0 0) " stroke-linecap="round" />
	<path d="M 70.666 0.123 l -2.497 1.044 c -0.561 0.235 -0.94 0.768 -0.977 1.374 l -0.135 2.2 c -0.043 0.705 0.382 1.354 1.045 1.596 l 2.624 0.959 c 0.709 0.259 1.503 -0.014 1.902 -0.655 l 1.794 -2.879 c 0.44 -0.706 0.264 -1.631 -0.404 -2.126 l -1.787 -1.324 C 71.779 -0.021 71.185 -0.093 70.666 0.123 z" style="stroke: none; stroke-width: 1; stroke-dasharray: none; stroke-linecap: butt; stroke-linejoin: miter; stroke-miterlimit: 10; fill: rgb(0,0,0); fill-rule: nonzero; opacity: 1;" transform=" matrix(1 0 0 1 0 0) " stroke-linecap="round" />
</g>
</svg>