<svg xmlns="http://www.w3.org/2000/svg" xmlns:xlink="http://www.w3.org/1999/xlink" version="1.1" width="256" height="256" viewBox="0 0 256 256" xml:space="preserve">

<defs>
</defs>
<g style="stroke: none; stroke-width: 0; stroke-dasharray: none; stroke-linecap: butt; stroke-linejoin: miter; stroke-miterlimit: 10; fill: none; fill-rule: nonzero; opacity: 1;" transform="translate(1.4065934065934016 1.4065934065934016) scale(2.81 2.81)" >
	<path d="M 45 90 C 20.187 90 0 69.813 0 45 C 0 20.187 20.187 0 45 0 c 24.813 0 45 20.187 45 45 C 90 69.813 69.813 90 45 90 z M 45 6 C 23.495 6 6 23.495 6 45 s 17.495 39 39 39 s 39 -17.495 39 -39 S 66.505 6 45 6 z" style="stroke: none; stroke-width: 1; stroke-dasharray: none; stroke-linecap: butt; stroke-linejoin: miter; stroke-miterlimit: 10; fill: rgb(0,0,0); fill-rule: nonzero; opacity: 1;" transform=" matrix(1 0 0 1 0 0) " stroke-linecap="round" />
	<path d="M 32.639 59.565 c -8.031 0 -14.565 -6.534 -14.565 -14.565 s 6.534 -14.565 14.565 -14.565 S 47.204 36.969 47.204 45 S 40.67 59.565 32.639 59.565 z M 32.639 36.435 c -4.723 0 -8.565 3.842 -8.565 8.565 s 3.842 8.565 8.565 8.565 c 4.723 0 8.565 -3.843 8.565 -8.565 S 37.362 36.435 32.639 36.435 z" style="stroke: none; stroke-width: 1; stroke-dasharray: none; stroke-linecap: butt; stroke-linejoin: miter; stroke-miterlimit: 10; fill: rgb(0,0,0); fill-rule: nonzero; opacity: 1;" transform=" matrix(1 0 0 1 0 0) " stroke-linecap="round" />
	<path d="M 68.927 48 H 44.204 c -1.657 0 -3 -1.343 -3 -3 c 0 -1.657 1.343 -3 3 -3 h 24.723 c 1.657 0 3 1.343 3 3 C 71.927 46.657 70.584 48 68.927 48 z" style="stroke: none; stroke-width: 1; stroke-dasharray: none; stroke-linecap: butt; stroke-linejoin: miter; stroke-miterlimit: 10; fill: rgb(0,0,0); fill-rule: nonzero; opacity: 1;" transform=" matrix(1 0 0 1 0 0) " stroke-linecap="round" />
	<path d="M 58.625 55.016 c -1.657 0 -3 -1.343 -3 -3 V 45 c 0 -1.657 1.343 -3 3 -3 s 3 1.343 3 3 v 7.016 C 61.625 53.673 60.282 55.016 58.625 55.016 z" style="stroke: none; stroke-width: 1; stroke-dasharray: none; stroke-linecap: butt; stroke-linejoin: miter; stroke-miterlimit: 10; fill: rgb(0,0,0); fill-rule: nonzero; opacity: 1;" transform=" matrix(1 0 0 1 0 0) " stroke-linecap="round" />
	<path d="M 68.927 55.016 c -1.657 0 -3 -1.343 -3 -3 V 45 c 0 -1.657 1.343 -3 3 -3 s 3 1.343 3 3 v 7.016 C 71.927 53.673 70.584 55.016 68.927 55.016 z" style="stroke: none; stroke-width: 1; stroke-dasharray: none; stroke-linecap: butt; stroke-linejoin: miter; stroke-miterlimit: 10; fill: rgb(0,0,0); fill-rule: nonzero; opacity: 1;" transform=" matrix(1 0 0 1 0 0) " stroke-linecap="round" />
</g>
</svg>