<svg xmlns="http://www.w3.org/2000/svg" xmlns:xlink="http://www.w3.org/1999/xlink" version="1.1" width="256" height="256" viewBox="0 0 256 256" xml:space="preserve">

<defs>
</defs>
<g style="stroke: none; stroke-width: 0; stroke-dasharray: none; stroke-linecap: butt; stroke-linejoin: miter; stroke-miterlimit: 10; fill: none; fill-rule: nonzero; opacity: 1;" transform="translate(1.4065934065934016 1.4065934065934016) scale(2.81 2.81)" >
	<path d="M 45 0 C 20.147 0 0 20.147 0 45 s 20.147 45 45 45 s 45 -20.147 45 -45 S 69.853 0 45 0 z" style="stroke: none; stroke-width: 1; stroke-dasharray: none; stroke-linecap: butt; stroke-linejoin: miter; stroke-miterlimit: 10; fill: rgb(248,195,65); fill-rule: nonzero; opacity: 1;" transform=" matrix(1 0 0 1 0 0) " stroke-linecap="round" />
	<path d="M 45 10 c -19.33 0 -35 15.67 -35 35 s 15.67 35 35 35 s 35 -15.67 35 -35 S 64.33 10 45 10 z" style="stroke: none; stroke-width: 1; stroke-dasharray: none; stroke-linecap: butt; stroke-linejoin: miter; stroke-miterlimit: 10; fill: rgb(206,140,0); fill-rule: nonzero; opacity: 1;" transform=" matrix(1 0 0 1 0 0) " stroke-linecap="round" />
	<polygon points="73.42,18.09 78.94,19.85 74.48,23.55 72.72,29.07 69.02,24.61 63.5,22.84 67.96,19.14 69.72,13.63 " style="stroke: none; stroke-width: 1; stroke-dasharray: none; stroke-linecap: butt; stroke-linejoin: miter; stroke-miterlimit: 10; fill: rgb(255,237,154); fill-rule: nonzero; opacity: 1;" transform="  matrix(1 0 0 1 0 0) "/>
	<polygon points="81.31,35.82 83.27,38.73 79.76,38.81 76.85,40.77 76.77,37.26 74.81,34.35 78.32,34.27 81.24,32.31 " style="stroke: none; stroke-width: 1; stroke-dasharray: none; stroke-linecap: butt; stroke-linejoin: miter; stroke-miterlimit: 10; fill: rgb(255,237,154); fill-rule: nonzero; opacity: 1;" transform="  matrix(1 0 0 1 0 0) "/>
	<path d="M 45 64.935 c -0.875 0 -1.75 -0.226 -2.53 -0.677 l -12.885 -7.439 c -1.558 -0.897 -2.528 -2.576 -2.528 -4.378 V 37.56 c 0 -1.801 0.969 -3.479 2.528 -4.378 l 12.886 -7.44 c 1.56 -0.899 3.497 -0.9 5.055 0 l 12.888 7.44 c 1.559 0.899 2.527 2.578 2.527 4.378 V 52.44 c 0 1.803 -0.97 3.48 -2.53 4.38 l -12.884 7.438 C 46.749 64.709 45.875 64.935 45 64.935 z M 34.058 51.317 L 45 57.635 l 10.942 -6.317 V 38.682 L 45 32.364 l -10.942 6.318 V 51.317 z" style="stroke: none; stroke-width: 1; stroke-dasharray: none; stroke-linecap: butt; stroke-linejoin: miter; stroke-miterlimit: 10; fill: rgb(248,195,65); fill-rule: nonzero; opacity: 1;" transform=" matrix(1 0 0 1 0 0) " stroke-linecap="round" />
</g>
</svg>